<?xml version="1.0" encoding="utf-8"?>
<!-- Generator: Adobe Illustrator 18.0.0, SVG Export Plug-In . SVG Version: 6.00 Build 0)  -->
<!DOCTYPE svg PUBLIC "-//W3C//DTD SVG 1.1//EN" "http://www.w3.org/Graphics/SVG/1.1/DTD/svg11.dtd">
<svg version="1.1" id="Layer_1" xmlns="http://www.w3.org/2000/svg" xmlns:xlink="http://www.w3.org/1999/xlink" x="0px" y="0px"
	 viewBox="0 0 1004.6 282" enable-background="new 0 0 1004.6 282" xml:space="preserve">
<g>
	<path fill="#FFFFFF" d="M436.9,124L436.9,124c-1.2-25.6-22.8-46.3-48.5-46.3c-26.8,0-48.5,21.8-48.5,48.5
		c0,26.8,21.8,48.5,48.5,48.5c12.2,0,24.1-4.7,33-13v10.2h15.5v-46L436.9,124z M421.4,126.1c0,18.7-15.2,33.8-33.8,33.8
		c-18.7,0-33.8-15.2-33.8-33.8c0-18.7,15.2-33.8,33.8-33.8C406.2,92.2,421.4,107.4,421.4,126.1z"/>
	<path fill="#FFFFFF" d="M285.6,77.7c-26.8,0-48.5,21.8-48.5,48.5v76.9h15.5v-41.3c8.9,8.3,20.8,13,33,13
		c26.8,0,48.6-21.8,48.6-48.5C334.2,99.5,312.4,77.7,285.6,77.7z M320.3,126.1c0,18.7-15.2,33.8-33.8,33.8
		c-18.7,0-33.9-15.2-33.9-33.8c0-18.7,15.2-33.8,33.9-33.8C305.1,92.2,320.3,107.4,320.3,126.1z"/>
	<path fill="#FFFFFF" d="M491.1,77.7c-26.8,0-48.5,21.8-48.5,48.5c0,26.8,21.8,48.5,48.5,48.5c9.9,0,19.5-3,27.6-8.7l0.9-0.6v-19.3
		l-3.6,3.7c-6.4,6.5-14.9,10.1-24.1,10.1c-18.7,0-33.8-15.2-33.8-33.8c0-18.7,15.2-33.8,33.8-33.8c9.1,0,17.7,3.6,24.1,10.1l3.6,3.7
		V87l-0.9-0.6C510.6,80.7,501.1,77.7,491.1,77.7z"/>
	<path fill="#FFFFFF" d="M661.6,79.4c-12.2,0-24.1,4.7-33,13V51.1h-15.5V128c0,26.8,21.8,48.5,48.6,48.5c26.8,0,48.5-21.8,48.5-48.5
		C710.2,101.2,688.4,79.4,661.6,79.4z M696.3,128.2c0,18.7-15.2,33.8-33.9,33.8c-18.7,0-33.8-15.2-33.8-33.8
		c0-18.7,15.2-33.9,33.8-33.9C681.1,94.3,696.3,109.5,696.3,128.2z"/>
	<path fill="#FFFFFF" d="M812.9,124c-1.2-25.6-22.8-46.3-48.5-46.3c-26.8,0-48.5,21.8-48.5,48.5c0,26.8,21.8,48.5,48.5,48.5
		c12.2,0,24.1-4.7,33-13v10.2h15.5v-46L812.9,124L812.9,124z M797.4,126.1c0,18.7-15.2,33.8-33.8,33.8c-18.7,0-33.8-15.2-33.8-33.8
		c0-18.7,15.2-33.8,33.8-33.8C782.2,92.2,797.4,107.4,797.4,126.1z"/>
	<path fill="#FFFFFF" d="M867.2,77.7c-26.8,0-48.5,21.8-48.5,48.5c0,26.8,21.8,48.5,48.5,48.5c9.9,0,19.5-3,27.7-8.7l0.9-0.6v-19.3
		l-3.6,3.7c-6.4,6.5-15,10.1-24.1,10.1c-18.7,0-33.8-15.2-33.8-33.8c0-18.7,15.2-33.8,33.8-33.8c9.1,0,17.7,3.6,24.1,10.1l3.6,3.7
		V87l-0.9-0.6C886.7,80.7,877.1,77.7,867.2,77.7z"/>
	<polygon fill="#FFFFFF" points="931.4,121.8 983.8,76.3 960.2,76.3 921,110.5 921,50.4 905,50.4 905,171.5 921,171.5 921,133.2 
		963.2,170.9 963.8,171.5 986.6,171.5 	"/>
	<polygon fill="#FFFFFF" points="555.4,121.8 607.8,76.3 584.2,76.3 545,110.5 545,50.4 529,50.4 529,171.5 545,171.5 545,133.2 
		587.2,170.9 587.8,171.5 610.6,171.5 	"/>
</g>
<g>
	<g>
		<path fill="#FFFFFF" d="M109.7,37.3c-28.4,0-53.9,16.8-65.2,42.9l-22.7,50.9l20.8,18.5v23l24,0v-64.9c0-24.3,19.8-44.1,44.1-44.1
			c24.3,0,44.1,19.8,44.1,44.1c0,13.6-6.1,26.2-16.8,34.6c-7.9,6.2-17.3,9.5-27.3,9.5c-7.9,0-15.6-2.6-20.8-5.3v56.3l45.5,0v-28.5
			l1-0.4c26.9-10.9,44.3-36.7,44.3-65.8C180.6,69.1,148.8,37.3,109.7,37.3z M51.3,117.7c-5.5,0-10-4.5-10-10c0-5.5,4.5-10,10-10
			c5.5,0,10,4.5,10,10C61.3,113.2,56.8,117.7,51.3,117.7z"/>
		<path fill="#6DB8C1" d="M110.5,129.3c11.9,0,21.7-9.7,21.7-21.7c0-11.9-9.7-21.7-21.7-21.7c-11.9,0-21.7,9.7-21.7,21.7
			C88.9,119.6,98.6,129.3,110.5,129.3z"/>
		<path fill="#FFFFFF" d="M112.6,243.4c12.1,0,21.9-9.4,22.7-21.3H89.8C90.6,234.1,100.5,243.4,112.6,243.4z"/>
	</g>
</g>
</svg>
