<?xml version="1.0" encoding="utf-8"?>
<!-- Generator: Adobe Illustrator 21.0.2, SVG Export Plug-In . SVG Version: 6.00 Build 0)  -->
<svg version="1.1" id="Layer_1" xmlns="http://www.w3.org/2000/svg" xmlns:xlink="http://www.w3.org/1999/xlink" x="0px" y="0px"
	 viewBox="0 0 600 600" enable-background="new 0 0 600 600" xml:space="preserve">
<path fill="#E47165" d="M283,79.1C161,79.1,62.1,178,62.1,300c0,42.1,11.8,81.5,32.3,115c38.8,63.5,108.8,105.9,188.6,105.9
	c79.9,0,149.8-42.4,188.6-105.9c20.5-33.5,32.3-72.9,32.3-115C503.9,178,405,79.1,283,79.1z"/>
<g>
	<path fill="#564130" d="M424.9,108.5c0,0-0.7-42,63.4-42c64.1,0,105.5,42,92.3,129.2c-7.4,49-66.1,172-44.7,197.2
		c21.4,25.3,44.7,7.8,44.7,7.8s-18.9,67-116.1,28.6c-97.1-38.4-58.4-135.6-58.4-135.6L424.9,108.5z"/>
	<circle fill="#69B4C2" cx="425.8" cy="145" r="43.5"/>
	<circle fill="#6B523D" cx="323.4" cy="238" r="165.3"/>
	<ellipse fill="#E5D2C6" cx="400.2" cy="364.6" rx="43.5" ry="45.1"/>
	<g>
		<path fill="#C8AEA0" d="M396.4,394.9c-0.6-0.9-1.1-1.9-1.6-2.8c-0.5-0.9-0.9-1.9-1.3-2.8c-0.4-0.9-0.7-1.9-1.1-2.8
			c-0.3-0.9-0.6-1.9-0.9-2.8c-1.1-3.7-1.9-7.4-2.4-11.1l-0.6-4.1l5.4-2.8c3.2-1.7,6.5-3.1,9.9-4.3c3.4-1.2,6.9-2.2,10.4-2.9
			c3.6-0.7,7.2-1.2,11-1.4c0.9,0,1.9,0,2.9,0c1,0,1.9,0,2.9,0.1c1,0.1,2,0.2,3,0.3c1,0.1,2,0.3,3.1,0.6c-0.6,0.9-1.3,1.6-2,2.4
			c-0.7,0.7-1.4,1.5-2.1,2.1c-0.7,0.7-1.4,1.3-2.2,1.9c-0.7,0.6-1.5,1.2-2.2,1.8c-3,2.3-6.1,4.2-9.3,5.9c-3.2,1.7-6.5,3.1-9.9,4.4
			c-3.4,1.2-6.8,2.2-10.4,3l4.9-6.9c-0.5,3.7-1.3,7.4-2.4,11.1c-0.3,0.9-0.6,1.9-0.9,2.8c-0.4,0.9-0.7,1.9-1.1,2.8
			c-0.4,0.9-0.8,1.9-1.3,2.8C397.5,393,397,394,396.4,394.9z"/>
	</g>
	<path fill="#F7E8DB" d="M403.5,283.6c0,0-14.7,134.6-74.4,158.7c-59.7,24.1-96.2,22.9-120.5,9.2c-24.3-13.8-69.6-35.8-86-77.3
		c-7.6-19.1,2.4-34.1,4.9-45.2c19.4-84.9,5.5-90.1,38-165.7c17-39.5,214.6,17.8,214.6,17.8l1.1,38.2L403.5,283.6z"/>
	<path fill="#F7E8DB" d="M400.2,313.2c0,0-11.5,105.1-71.2,129.2c-59.7,24.1-96.2,22.9-120.5,9.2c-24.3-13.8-69.6-35.8-86-77.3
		c-7.6-19.1,2.4-34.1,4.9-45.2c19.4-84.9,5.5-90.1,38-165.7c17-39.5,214.6,17.8,214.6,17.8l14.1,110L400.2,313.2z"/>
	<g opacity="0.3">
		<path fill="#E5D2C6" d="M229.3,422.3c1.4-6.2-1.4-9.4-15.5-18.3c-14.1-8.9-3.3-18.6-3.3-18.6l-6-32.1c0,0-5.7-3.6,0-20.4
			c5.7-16.9,11-30.2,9.3-82.9c-1-32,15-71.8,27.8-98.2c-37.6-4.4-69.8-3.3-76.2,11.6c-32.5,75.6-18.5,80.8-38,165.7
			c-2.5,11.1-12.5,26-4.9,45.2c16.4,41.5,61.7,63.5,86,77.3c7.4,4.2,15.8,7.2,25.7,8.7C231.6,445.7,228.4,426.2,229.3,422.3z"/>
	</g>
	<circle fill="#0F2A3C" stroke="#0F2A3C" stroke-width="3.1221" stroke-miterlimit="10" cx="184.4" cy="309.1" r="8.4"/>
	<circle fill="#0F2A3C" stroke="#0F2A3C" stroke-width="3.1221" stroke-miterlimit="10" cx="280.1" cy="317.5" r="10.1"/>
	<path fill="#926B55" d="M262.8,265.4c0,0,36.8-19.9,45.9-11.6c9.1,8.3,17.2,23.1,17.2,23.1s-15-18.2-27.6-17.5
		C285.9,260.2,262.8,265.4,262.8,265.4z"/>
	<path fill="#E0CBB3" d="M229.4,346.1c0,0-5.9,4.4-7.9,3.8c-2-0.6-14.1-6.5-18.8-5.7c-1.5,0.3-6.4,4.2-4,5.6c1.4,0.8,2.5-0.2,12,0.6
		c3.4,0.3,12.3,2.2,14.7,1.6C227.8,351.4,229.4,346.1,229.4,346.1z"/>
	<path fill="#926B55" d="M204.4,267.4c0,0-19.5-9.8-25.2-9c-5.8,0.8-20.5,9.6-20.5,9.6s11.8-16.7,19.5-16.5
		C185.8,251.7,204.4,267.4,204.4,267.4z"/>
	<circle fill="#E5D2C6" cx="264.6" cy="375.3" r="4.6"/>
	<path fill="#EECAAF" d="M202.5,384.5c0,0-4.9,2.9-3.8,10.9c1.5,10.5,16.9,18.6,37.3,9.2c18.8-8.7,21.2-25.9,21.2-25.9L202.5,384.5z
		"/>
	<path fill="#C66B42" d="M192.9,382.6c-3.2-0.8-12.4-9.2-6.1-11.6c6.4-2.4,24.1,3.6,24.1,3.6s9.6-9.2,20.5-3.2
		c10.9,6,34.7,3.6,34.7,3.6S223.2,390.6,192.9,382.6z"/>
	<ellipse opacity="0.4" fill="#FBCFB6" cx="301.5" cy="348.6" rx="33.6" ry="13.2"/>
	<ellipse opacity="0.4" fill="#FBCFB6" cx="154.6" cy="338.2" rx="23.3" ry="13.2"/>
	<path fill="#785D45" d="M152.2,197c0,0-49-65.2,5.9-120.1C213.1,21.9,326,41.4,369.4,92.4c35.3,41.5,34,145.5,34,145.5
		s-60.1-92-195.3-92C158.6,146,152.2,197,152.2,197z"/>
	<path fill="#785D45" d="M152.2,197c0,0-49-65.2,5.9-120.1C213.1,21.9,326,41.4,369.4,92.4c35.3,41.5,26.9,131.1,26.9,131.1
		s-56.1-67.2-191.4-67.2C155.5,156.4,152.2,197,152.2,197z"/>
	<polygon fill="#6B523D" points="400.2,264.4 391.9,342.7 416.7,316 	"/>
</g>
</svg>
